<svg xmlns="http://www.w3.org/2000/svg" width="130.556" height="98.521" viewBox="0 0 130.556 98.521">
  <g id="icone-success" transform="translate(1.5 1.5)">
    <path id="Tracé_758" data-name="Tracé 758" d="M36.193,56.765c-2.035,8.216-10.941,13.081-10.941,13.081s-5.608-8.459-3.573-16.675S32.62,40.09,32.62,40.09,38.228,48.549,36.193,56.765Z" transform="translate(10.63 21.838)" fill="rgba(197,6,55,0.75)" stroke="#000" stroke-linecap="round" stroke-linejoin="round" stroke-width="3"/>
    <path id="Tracé_759" data-name="Tracé 759" d="M18.371,66.451c8.216,2.035,16.673-3.573,16.673-3.573s-4.863-8.907-13.079-10.941S5.29,55.51,5.29,55.51,10.155,64.417,18.371,66.451Z" transform="translate(1.152 28.616)" fill="rgba(197,6,55,0.75)" stroke="#000" stroke-linecap="round" stroke-linejoin="round" stroke-width="3"/>
    <path id="Tracé_760" data-name="Tracé 760" d="M16.952,55.9s-3.619-7.971-.6-14.509S27.6,32.22,27.6,32.22a24.072,24.072,0,0,1,1.556,7.452" transform="translate(7.014 17.16)" fill="none" stroke="#000" stroke-linecap="round" stroke-linejoin="round" stroke-width="3" stroke-dasharray="1 5"/>
    <path id="Tracé_761" data-name="Tracé 761" d="M25.11,51.671s-2.631-8.226-9.17-11.249-14.511.3-14.511.3,2.015,6.3,6.9,9.9" transform="translate(-1.144 21.281)" fill="none" stroke="#000" stroke-linecap="round" stroke-linejoin="round" stroke-width="3" stroke-dasharray="1 6"/>
    <path id="Tracé_762" data-name="Tracé 762" d="M12,41.6s-1.29-7.215,2.565-11.915S25.7,24.582,25.7,24.582a20.3,20.3,0,0,1-.175,5.737" transform="translate(5.019 12.62)" fill="none" stroke="#000" stroke-linecap="round" stroke-linejoin="round" stroke-width="3"/>
    <path id="Tracé_763" data-name="Tracé 763" d="M18.272,40.492s-.407-7.277-5.107-11.131S1.25,26.534,1.25,26.534s.375,6.713,4.568,10.657" transform="translate(-1.25 13.706)" fill="none" stroke="#000" stroke-linecap="round" stroke-linejoin="round" stroke-width="3"/>
    <path id="Tracé_764" data-name="Tracé 764" d="M10.856,28.616s-.045-6.552,4.091-10.128,10.646-2.824,10.646-2.824a17.9,17.9,0,0,1-1.843,6.914" transform="translate(4.46 7.279)" fill="none" stroke="#000" stroke-linecap="round" stroke-linejoin="round" stroke-width="3"/>
    <path id="Tracé_765" data-name="Tracé 765" d="M15.708,29.357s.753-6.512-2.824-10.646S2.757,14.382,2.757,14.382s-.6,5.2,1.822,9.256" transform="translate(-0.394 6.556)" fill="none" stroke="#000" stroke-linecap="round" stroke-linejoin="round" stroke-width="3"/>
    <path id="Tracé_766" data-name="Tracé 766" d="M11.77,16.337s1.248-4.836,5.023-6.69,8.468-.026,8.468-.026a13.543,13.543,0,0,1-1.124,2.55" transform="translate(5.004 3.248)" fill="none" stroke="#000" stroke-linecap="round" stroke-linejoin="round" stroke-width="3"/>
    <path id="Tracé_767" data-name="Tracé 767" d="M14.575,18.664s1.829-4.7-.026-8.47S7.859,5,7.859,5A12.836,12.836,0,0,0,7.4,12.2" transform="translate(2.2 0.98)" fill="none" stroke="#000" stroke-linecap="round" stroke-linejoin="round" stroke-width="3"/>
    <path id="Tracé_768" data-name="Tracé 768" d="M19.232,6.131a12.324,12.324,0,0,0-.416-4.881A12.072,12.072,0,0,0,14.17,4.381" transform="translate(6.43 -1.25)" fill="none" stroke="#000" stroke-linecap="round" stroke-linejoin="round" stroke-width="3"/>
    <path id="Tracé_769" data-name="Tracé 769" d="M52.05,56.765c2.035,8.216,10.941,13.081,10.941,13.081s5.608-8.459,3.573-16.675S55.623,40.09,55.623,40.09,50.015,48.549,52.05,56.765Z" transform="translate(28.684 21.838)" fill="rgba(197,6,55,0.75)" stroke="#000" stroke-linecap="round" stroke-linejoin="round" stroke-width="3"/>
    <path id="Tracé_770" data-name="Tracé 770" d="M75.223,66.451c-8.216,2.035-16.675-3.573-16.675-3.573s4.865-8.907,13.081-10.941S88.3,55.51,88.3,55.51,83.439,64.417,75.223,66.451Z" transform="translate(32.811 28.616)" fill="rgba(197,6,55,0.75)" stroke="#000" stroke-linecap="round" stroke-linejoin="round" stroke-width="3"/>
    <path id="Tracé_771" data-name="Tracé 771" d="M70.771,55.9s3.619-7.971.6-14.509S60.118,32.22,60.118,32.22a24.018,24.018,0,0,0-1.556,7.452" transform="translate(32.819 17.16)" fill="none" stroke="#000" stroke-linecap="round" stroke-linejoin="round" stroke-width="3" stroke-dasharray="1 6"/>
    <path id="Tracé_772" data-name="Tracé 772" d="M66.219,51.671s2.631-8.226,9.17-11.249,14.511.3,14.511.3-2.015,6.3-6.9,9.9" transform="translate(37.371 21.281)" fill="none" stroke="#000" stroke-linecap="round" stroke-linejoin="round" stroke-width="3" stroke-dasharray="1 6"/>
    <path id="Tracé_773" data-name="Tracé 773" d="M75.727,41.6s1.29-7.215-2.565-11.915S62.03,24.582,62.03,24.582a20.3,20.3,0,0,0,.175,5.737" transform="translate(34.807 12.62)" fill="none" stroke="#000" stroke-linecap="round" stroke-linejoin="round" stroke-width="3"/>
    <path id="Tracé_774" data-name="Tracé 774" d="M70.574,40.492s.407-7.277,5.107-11.131S87.6,26.534,87.6,26.534s-.375,6.713-4.568,10.657" transform="translate(39.96 13.706)" fill="none" stroke="#000" stroke-linecap="round" stroke-linejoin="round" stroke-width="3"/>
    <path id="Tracé_775" data-name="Tracé 775" d="M77.138,28.616s.045-6.552-4.091-10.128S62.4,15.665,62.4,15.665a17.9,17.9,0,0,0,1.843,6.914" transform="translate(35.101 7.279)" fill="none" stroke="#000" stroke-linecap="round" stroke-linejoin="round" stroke-width="3"/>
    <path id="Tracé_776" data-name="Tracé 776" d="M71.67,29.357s-.753-6.512,2.824-10.646,10.128-4.329,10.128-4.329.6,5.2-1.822,9.256" transform="translate(40.572 6.556)" fill="none" stroke="#000" stroke-linecap="round" stroke-linejoin="round" stroke-width="3"/>
    <path id="Tracé_777" data-name="Tracé 777" d="M75.76,16.337s-1.248-4.836-5.023-6.69-8.468-.026-8.468-.026a13.543,13.543,0,0,0,1.124,2.55" transform="translate(35.023 3.248)" fill="none" stroke="#000" stroke-linecap="round" stroke-linejoin="round" stroke-width="3"/>
    <path id="Tracé_778" data-name="Tracé 778" d="M71.029,18.664s-1.829-4.7.026-8.47S77.745,5,77.745,5a12.836,12.836,0,0,1,.461,7.194" transform="translate(39.752 0.98)" fill="none" stroke="#000" stroke-linecap="round" stroke-linejoin="round" stroke-width="3"/>
    <path id="Tracé_779" data-name="Tracé 779" d="M65.188,6.131A12.325,12.325,0,0,1,65.6,1.25,12.072,12.072,0,0,1,70.25,4.381" transform="translate(36.706 -1.25)" fill="none" stroke="#000" stroke-linecap="round" stroke-linejoin="round" stroke-width="3"/>
  </g>
</svg>
