<svg xmlns="http://www.w3.org/2000/svg" width="97.991" height="100.064" viewBox="0 0 97.991 100.064">
  <g id="icone-developper" transform="translate(0 0)">
    <path id="Tracé_164" data-name="Tracé 164" d="M1.967.456h9.51L8.536,34.674H4.712Z" transform="translate(43 41.666)" fill="#c50637" opacity="0.75"/>
    <path id="Tracé_129" data-name="Tracé 129" d="M57.478,78.989H42a1.467,1.467,0,0,1-1.452-1.264l-.238-1.718A39.562,39.562,0,0,0,32.36,57.37,21.938,21.938,0,0,1,48.343,22.09,21.753,21.753,0,0,1,64.764,28a22.028,22.028,0,0,1,6.917,15.99,21.74,21.74,0,0,1-4.422,13.207,40.312,40.312,0,0,0-8.091,18.821l-.237,1.71a1.466,1.466,0,0,1-1.452,1.265m-14.2-2.932H56.2l.063-.447A43.193,43.193,0,0,1,64.92,55.427,19.009,19.009,0,0,0,48.525,25.016,19.007,19.007,0,0,0,34.681,55.58,42.515,42.515,0,0,1,43.219,75.6Z" transform="translate(-0.634 -0.503)"/>
    <path id="Tracé_130" data-name="Tracé 130" d="M52.54,79.443H48.768a1.466,1.466,0,0,1-1.463-1.376L45.184,43.5a1.465,1.465,0,0,1,1.463-1.556h8.016A1.466,1.466,0,0,1,56.126,43.5L54,78.067a1.465,1.465,0,0,1-1.463,1.376m-2.393-2.932h1.014L53.1,44.881h-4.9Z" transform="translate(-1.03 -0.956)"/>
    <path id="Tracé_131" data-name="Tracé 131" d="M50,101.826a15.021,15.021,0,0,1-15-15v-8.04a1.466,1.466,0,0,1,1.466-1.466H63.538A1.466,1.466,0,0,1,65,78.783v8.04a15.021,15.021,0,0,1-15,15M37.929,80.249v6.574a12.072,12.072,0,1,0,24.144,0V80.249Z" transform="translate(-0.797 -1.762)"/>
    <path id="Tracé_132" data-name="Tracé 132" d="M21.687,91.154A1.468,1.468,0,0,1,20.211,89.7a1.5,1.5,0,0,1,.029-.294,1.451,1.451,0,0,1,.088-.273,1.256,1.256,0,0,1,.137-.255,1,1,0,0,1,.186-.215,1.5,1.5,0,0,1,2.072,0,.962.962,0,0,1,.176.215,1.256,1.256,0,0,1,.137.255,1.451,1.451,0,0,1,.088.273,1.5,1.5,0,0,1,.029.294,1.451,1.451,0,0,1-1.466,1.455" transform="translate(-0.461 -2.011)"/>
    <path id="Tracé_133" data-name="Tracé 133" d="M11.532,80.681h0a1.463,1.463,0,1,1,2.062.177,1.434,1.434,0,0,1-.948.342,1.449,1.449,0,0,1-1.114-.519M88.038,76.5a1.466,1.466,0,1,1,2.033-.41v-.01a1.473,1.473,0,0,1-1.231.665,1.428,1.428,0,0,1-.8-.244M4.946,70.6h0a1.464,1.464,0,1,1,1.964.665,1.424,1.424,0,0,1-.645.156A1.466,1.466,0,0,1,4.946,70.6M93.559,66.19a1.444,1.444,0,1,1,.489.088,1.434,1.434,0,0,1-.489-.088M1.027,59.2a1.463,1.463,0,1,1,1.73,1.134,1.518,1.518,0,0,1-.3.028A1.459,1.459,0,0,1,1.027,59.2m95.366-4.358a1.462,1.462,0,1,1,1.593-1.329,1.472,1.472,0,0,1-1.456,1.339.645.645,0,0,1-.137-.01M1.408,48.717a1.5,1.5,0,1,1,.059,0Zm93.3-6.792a1.463,1.463,0,1,1,1.671,1.231,1.744,1.744,0,0,1-.225.02,1.476,1.476,0,0,1-1.446-1.251m-91.8-4.8a1.466,1.466,0,1,1,.41.059,1.488,1.488,0,0,1-.41-.059m88.7-6.088a1.469,1.469,0,1,1,1.925.781,1.456,1.456,0,0,1-.567.118,1.486,1.486,0,0,1-1.358-.9M7.2,26.251a1.478,1.478,0,1,1,.733.194,1.422,1.422,0,0,1-.733-.194m78.754-5.013A1.469,1.469,0,0,1,88.3,19.469a1.469,1.469,0,0,1-2.345,1.769M14,16.743a1.465,1.465,0,1,1,2.081-.02,1.477,1.477,0,0,1-2.081.02M78.08,13.1A1.469,1.469,0,1,1,79,13.42a1.471,1.471,0,0,1-.919-.322M22.917,9.179a1.467,1.467,0,1,1,2.5-1.534,1.464,1.464,0,0,1-.489,2.013,1.431,1.431,0,0,1-.762.215,1.464,1.464,0,0,1-1.251-.694M68.465,7.106h0a1.459,1.459,0,1,1,.616.138,1.544,1.544,0,0,1-.616-.138M33.4,4a1.465,1.465,0,1,1,1.837.958,1.376,1.376,0,0,1-.44.068A1.463,1.463,0,0,1,33.4,4m24.274-.352a1.453,1.453,0,1,1,.274.029,1.375,1.375,0,0,1-.274-.029m-12.85-2.1a1.468,1.468,0,1,1,1.554,1.378.271.271,0,0,1-.088.01,1.475,1.475,0,0,1-1.466-1.388" transform="translate(0 0)"/>
    <path id="Tracé_134" data-name="Tracé 134" d="M83.027,87.645a1.4,1.4,0,0,1-.567-.117,1.365,1.365,0,0,1-.469-.314,1.326,1.326,0,0,1-.322-.478,1.348,1.348,0,0,1-.107-.557,1.464,1.464,0,0,1,.43-1.036,1.856,1.856,0,0,1,.215-.186c.088-.049.166-.1.254-.137s.186-.059.274-.078a1.432,1.432,0,0,1,.577,0,2.236,2.236,0,0,1,.274.078,2.1,2.1,0,0,1,.254.137,1.956,1.956,0,0,1,.225.186,1.462,1.462,0,0,1,0,2.071,1.4,1.4,0,0,1-.479.314,1.356,1.356,0,0,1-.557.117" transform="translate(-1.859 -1.931)"/>
    <path id="Tracé_135" data-name="Tracé 135" d="M50.768,18.5A1.466,1.466,0,0,1,49.3,17.031V11.292a1.466,1.466,0,1,1,2.932,0v5.739A1.466,1.466,0,0,1,50.768,18.5" transform="translate(-1.123 -0.224)"/>
    <path id="Tracé_136" data-name="Tracé 136" d="M70.185,26.8a1.466,1.466,0,0,1-1.037-2.5l4.059-4.058a1.466,1.466,0,0,1,2.073,2.073l-4.058,4.059a1.461,1.461,0,0,1-1.037.429" transform="translate(-1.566 -0.452)"/>
    <path id="Tracé_137" data-name="Tracé 137" d="M26.676,69.566a1.466,1.466,0,0,1-1.037-2.5L29.7,63a1.466,1.466,0,1,1,2.073,2.073l-4.058,4.059a1.461,1.461,0,0,1-1.037.429" transform="translate(-0.574 -1.426)"/>
    <path id="Tracé_138" data-name="Tracé 138" d="M83.814,46.46h-5.74a1.466,1.466,0,0,1,0-2.932h5.74a1.466,1.466,0,0,1,0,2.932" transform="translate(-1.746 -0.992)"/>
    <path id="Tracé_139" data-name="Tracé 139" d="M22.806,45.937h-5.74a1.466,1.466,0,0,1,0-2.932h5.74a1.466,1.466,0,1,1,0,2.932" transform="translate(-0.355 -0.98)"/>
    <path id="Tracé_140" data-name="Tracé 140" d="M73.874,69.935a1.457,1.457,0,0,1-1.036-.429L68.78,65.447a1.466,1.466,0,0,1,2.073-2.073l4.058,4.058a1.466,1.466,0,0,1-1.037,2.5" transform="translate(-1.558 -1.435)"/>
    <path id="Tracé_141" data-name="Tracé 141" d="M31.1,26.425A1.461,1.461,0,0,1,30.066,26l-4.058-4.058a1.466,1.466,0,0,1,2.073-2.073l4.059,4.057a1.466,1.466,0,0,1-1.037,2.5" transform="translate(-0.583 -0.443)"/>
  </g>
</svg>
