<svg id="logo-devup" xmlns="http://www.w3.org/2000/svg" xmlns:xlink="http://www.w3.org/1999/xlink" width="331.75" height="88" viewBox="0 0 331.75 88">
  <defs>
    <clipPath id="clip-path">
      <rect id="Rectangle_1" data-name="Rectangle 1" width="331.75" height="88"/>
    </clipPath>
    <clipPath id="clip-path-14">
      <rect id="Rectangle_15" data-name="Rectangle 15" width="331.75" height="88" transform="translate(-117.066 -54.622)"/>
    </clipPath>
    <clipPath id="clip-path-17">
      <rect id="Rectangle_19" data-name="Rectangle 19" width="331.75" height="88" transform="translate(-138.493 -51.72)"/>
    </clipPath>
    <clipPath id="clip-path-26">
      <rect id="Rectangle_28" data-name="Rectangle 28" width="331.75" height="88" transform="translate(-19.552 -69.877)"/>
    </clipPath>
    <clipPath id="clip-path-27">
      <rect id="Rectangle_30" data-name="Rectangle 30" width="331.75" height="88" transform="translate(-19.804 -74.723)"/>
    </clipPath>
    <clipPath id="clip-path-43">
      <rect id="Rectangle_47" data-name="Rectangle 47" width="331.75" height="88" transform="translate(-138.555 -74.723)"/>
    </clipPath>
  </defs>
  <g id="Groupe_66" data-name="Groupe 66">
    <g id="Groupe_1" data-name="Groupe 1" clip-path="url(#clip-path)">
      <path id="Tracé_1" data-name="Tracé 1" d="M69.026,32.9A24.769,24.769,0,1,1,43.754,8.649,24.767,24.767,0,0,1,69.026,32.9" fill="#c50637"/>
    </g>
    <g id="Groupe_2" data-name="Groupe 2" clip-path="url(#clip-path)">
      <path id="Tracé_2" data-name="Tracé 2" d="M44.726,20.149H33.9v8.09l4.505,4.5-4.505,4.5v8.163H44.725c9.059,0,13.209-5.846,13.209-12.812s-4.294-12.45-13.208-12.45m0,19.235H40.973l6.577-6.578-6.577-6.577V26.1h3.753c4.367,0,6.136,2.96,6.136,6.424s-1.59,6.857-6.136,6.857" fill="#fff"/>
    </g>
    <g id="Groupe_3" data-name="Groupe 3" clip-path="url(#clip-path)">
      <path id="Tracé_3" data-name="Tracé 3" d="M106.049,8.631V47H99.792l-.439-3.733C97.268,46.5,93.919,47.6,90.626,47.6c-7.958,0-13.941-5.269-13.941-14.16,0-9.331,5.873-14.161,13.776-14.161,2.855,0,7.3,1.537,8.892,4.336V8.631ZM83.381,33.44a7.769,7.769,0,1,0,15.533,0,7.722,7.722,0,0,0-7.848-7.9c-4.282,0-7.685,3.019-7.685,7.9" fill="#303731"/>
    </g>
    <g id="Groupe_4" data-name="Groupe 4" clip-path="url(#clip-path)">
      <path id="Tracé_4" data-name="Tracé 4" d="M115.437,35.855c.439,3.348,3.349,5.763,8.068,5.763,2.47,0,5.708-.933,7.246-2.525l4.281,4.226c-2.855,2.964-7.52,4.391-11.636,4.391-9.331,0-14.874-5.763-14.874-14.435,0-8.233,5.6-14.16,14.38-14.16,9.056,0,14.709,5.6,13.666,16.74H115.437Zm14.709-5.544c-.439-3.513-3.184-5.269-7.025-5.269-3.623,0-6.587,1.756-7.575,5.269Z" fill="#303731"/>
    </g>
    <g id="Groupe_5" data-name="Groupe 5" clip-path="url(#clip-path)">
      <path id="Tracé_5" data-name="Tracé 5" d="M166.43,19.883,154.9,47.106h-7.245L136.078,19.883h7.3l3.732,8.947,4.173,11.416L155.4,28.938l3.732-9.055Z" fill="#303731"/>
    </g>
    <g id="Groupe_6" data-name="Groupe 6" clip-path="url(#clip-path)">
      <path id="Tracé_6" data-name="Tracé 6" d="M203.758,23.669a10.75,10.75,0,0,1,8.781-4.336c8.343,0,13.887,6.2,13.887,14.161,0,7.9-4.995,14.161-13.667,14.161-2.854,0-7.08-.879-9-3.843V58.3h-6.7V19.938s5.86-.185,6.7,3.731m15.971,9.826a7.685,7.685,0,0,0-15.369,0,7.685,7.685,0,0,0,15.369,0" fill="#303731"/>
    </g>
    <g id="Groupe_7" data-name="Groupe 7" clip-path="url(#clip-path)">
      <path id="Tracé_7" data-name="Tracé 7" d="M168.322,18.375,166.552,22h3.77l1.717-3.623Z" fill="#303731"/>
    </g>
    <g id="Groupe_8" data-name="Groupe 8" clip-path="url(#clip-path)">
      <path id="Tracé_8" data-name="Tracé 8" d="M82.139,57.313a3.379,3.379,0,0,1-2.436.952,3.15,3.15,0,0,1-3.4-3.305,3.226,3.226,0,0,1,3.4-3.378,3.309,3.309,0,0,1,2.353.979l-.805.777a2.208,2.208,0,0,0-1.548-.6A2.1,2.1,0,0,0,77.5,54.96,2.054,2.054,0,0,0,79.7,57.13a2.361,2.361,0,0,0,1.612-.65Z" fill="#303731"/>
    </g>
    <g id="Groupe_9" data-name="Groupe 9" clip-path="url(#clip-path)">
      <path id="Tracé_9" data-name="Tracé 9" d="M85.419,56.261a1.2,1.2,0,0,0,1.346.962,1.863,1.863,0,0,0,1.209-.422l.714.705a2.773,2.773,0,0,1-1.941.732,2.386,2.386,0,1,1-.082-4.77c1.51,0,2.453.935,2.279,2.793Zm2.455-.925a1.034,1.034,0,0,0-1.172-.879,1.217,1.217,0,0,0-1.264.879Z" fill="#303731"/>
    </g>
    <g id="Groupe_10" data-name="Groupe 10" clip-path="url(#clip-path)">
      <path id="Tracé_10" data-name="Tracé 10" d="M94.955,58.119V55.758a1.075,1.075,0,0,0-1.089-1.208,1.186,1.186,0,0,0-1.154,1.263V58.12H91.6V53.6h1l.073.612a2.04,2.04,0,0,1,1.484-.678,1.964,1.964,0,0,1,1.913,2.216V58.12H94.955Z" fill="#303731"/>
    </g>
    <g id="Groupe_11" data-name="Groupe 11" clip-path="url(#clip-path)">
      <path id="Tracé_11" data-name="Tracé 11" d="M100.242,52.333v1.282h1.245v.961h-1.254v1.95a.56.56,0,0,0,.586.641,1.285,1.285,0,0,0,.54-.137l.311.952a2.473,2.473,0,0,1-.925.191,1.458,1.458,0,0,1-1.62-1.647v-1.95h-.842v-.961h.842V52.452Z" fill="#303731"/>
    </g>
    <g id="Groupe_12" data-name="Groupe 12" clip-path="url(#clip-path)">
      <path id="Tracé_12" data-name="Tracé 12" d="M105.182,53.6l.082.522a1.329,1.329,0,0,1,1.273-.642,1.71,1.71,0,0,1,1.163.432l-.5.97a1.117,1.117,0,0,0-.806-.293,1.042,1.042,0,0,0-1.126,1.144V58.12h-1.117V53.605h1.035Z" fill="#303731"/>
    </g>
    <g id="Groupe_13" data-name="Groupe 13" clip-path="url(#clip-path)">
      <path id="Tracé_13" data-name="Tracé 13" d="M110.9,56.261a1.2,1.2,0,0,0,1.346.962,1.863,1.863,0,0,0,1.209-.422l.714.705a2.773,2.773,0,0,1-1.941.732,2.386,2.386,0,1,1-.082-4.77c1.51,0,2.453.935,2.279,2.793Zm2.454-.925a1.034,1.034,0,0,0-1.172-.879,1.217,1.217,0,0,0-1.264.879Z" fill="#303731"/>
    </g>
    <g id="Groupe_14" data-name="Groupe 14" transform="translate(117.066 54.622)" clip-path="url(#clip-path-14)">
      <rect id="Rectangle_14" data-name="Rectangle 14" width="3.378" height="1.025" fill="#303731"/>
    </g>
    <g id="Groupe_15" data-name="Groupe 15" clip-path="url(#clip-path)">
      <path id="Tracé_14" data-name="Tracé 14" d="M126.693,58.146h-1.254l-2.664-6.435h1.355l1.932,4.99,1.94-4.99h1.355Z" fill="#303731"/>
    </g>
    <g id="Groupe_16" data-name="Groupe 16" clip-path="url(#clip-path)">
      <path id="Tracé_15" data-name="Tracé 15" d="M134.653,53.606h1.071v4.513h-1.052l-.056-.659a1.714,1.714,0,0,1-1.465.8,2.38,2.38,0,0,1,.028-4.759,1.655,1.655,0,0,1,1.437.732Zm-2.71,2.252a1.294,1.294,0,0,0,1.337,1.373,1.369,1.369,0,0,0,0-2.737,1.285,1.285,0,0,0-1.337,1.364" fill="#303731"/>
    </g>
    <g id="Groupe_17" data-name="Groupe 17" transform="translate(138.493 51.72)" clip-path="url(#clip-path-17)">
      <rect id="Rectangle_18" data-name="Rectangle 18" width="1.108" height="6.399" fill="#303731"/>
    </g>
    <g id="Groupe_18" data-name="Groupe 18" clip-path="url(#clip-path)">
      <path id="Tracé_16" data-name="Tracé 16" d="M150.774,51.72v6.4h-1.043l-.073-.622a1.645,1.645,0,0,1-1.457.723,2.215,2.215,0,0,1-2.325-2.361,2.161,2.161,0,0,1,2.3-2.362,1.871,1.871,0,0,1,1.484.723v-2.5Zm-3.781,4.138a1.3,1.3,0,1,0,2.591,0,1.287,1.287,0,0,0-1.309-1.318,1.245,1.245,0,0,0-1.282,1.318" fill="#303731"/>
    </g>
    <g id="Groupe_19" data-name="Groupe 19" clip-path="url(#clip-path)">
      <path id="Tracé_17" data-name="Tracé 17" d="M154.623,56.261a1.2,1.2,0,0,0,1.346.962,1.863,1.863,0,0,0,1.209-.422l.714.705a2.773,2.773,0,0,1-1.941.732,2.386,2.386,0,1,1-.082-4.77c1.51,0,2.453.935,2.279,2.793Zm2.454-.925a1.034,1.034,0,0,0-1.172-.879,1.215,1.215,0,0,0-1.263.879Z" fill="#303731"/>
    </g>
    <g id="Groupe_20" data-name="Groupe 20" clip-path="url(#clip-path)">
      <path id="Tracé_18" data-name="Tracé 18" d="M165.8,51.711V57h3.3V58.12H164.6V51.711Z" fill="#303731"/>
    </g>
    <g id="Groupe_21" data-name="Groupe 21" clip-path="url(#clip-path)">
      <path id="Tracé_19" data-name="Tracé 19" d="M176.182,55.867a2.349,2.349,0,1,1-2.363-2.353,2.282,2.282,0,0,1,2.363,2.353m-3.58,0a1.231,1.231,0,1,0,2.455,0,1.275,1.275,0,0,0-1.228-1.337,1.24,1.24,0,0,0-1.227,1.337" fill="#303731"/>
    </g>
    <g id="Groupe_22" data-name="Groupe 22" clip-path="url(#clip-path)">
      <path id="Tracé_20" data-name="Tracé 20" d="M179.995,52.333a.66.66,0,0,1-1.319,0,.66.66,0,0,1,1.319,0m-1.218,5.786h1.116V53.587h-1.116Z" fill="#303731"/>
    </g>
    <g id="Groupe_23" data-name="Groupe 23" clip-path="url(#clip-path)">
      <path id="Tracé_21" data-name="Tracé 21" d="M183.764,53.6l.083.522a1.325,1.325,0,0,1,1.271-.642,1.708,1.708,0,0,1,1.163.432l-.5.97a1.115,1.115,0,0,0-.806-.293,1.041,1.041,0,0,0-1.125,1.144V58.12h-1.118V53.605h1.036Z" fill="#303731"/>
    </g>
    <g id="Groupe_24" data-name="Groupe 24" clip-path="url(#clip-path)">
      <path id="Tracé_22" data-name="Tracé 22" d="M189.481,56.261a1.2,1.2,0,0,0,1.346.962,1.863,1.863,0,0,0,1.209-.422l.714.705a2.773,2.773,0,0,1-1.94.732,2.386,2.386,0,1,1-.082-4.77c1.51,0,2.453.935,2.279,2.793Zm2.455-.925a1.034,1.034,0,0,0-1.172-.879,1.216,1.216,0,0,0-1.264.879Z" fill="#303731"/>
    </g>
    <g id="Groupe_25" data-name="Groupe 25" clip-path="url(#clip-path)">
      <path id="Tracé_23" data-name="Tracé 23" d="M193.875,19.938V47.051h-5.982l-.439-3.677c-2.8,2.746-5.379,4.062-9.166,4.062-6.477,0-11.2-4.885-11.2-13.283V32.168l5.294-12.23h1.4V34.1c0,4.116,2.25,7.244,6.531,7.244,4.116,0,6.914-3.457,6.914-7.574v-8.2s-.339-5.634,6.642-5.634" fill="#c50637"/>
    </g>
    <g id="Groupe_26" data-name="Groupe 26" transform="translate(19.552 69.877)" clip-path="url(#clip-path-26)">
      <line id="Ligne_1" data-name="Ligne 1" x2="285.107" fill="none"/>
    </g>
    <g id="Groupe_27" data-name="Groupe 27" transform="translate(19.804 74.723)" clip-path="url(#clip-path-27)">
      <rect id="Rectangle_29" data-name="Rectangle 29" width="0.578" height="4.646" fill="#3d3d3b"/>
    </g>
    <g id="Groupe_28" data-name="Groupe 28" clip-path="url(#clip-path)">
      <path id="Tracé_24" data-name="Tracé 24" d="M24.786,76.084h.5l.026.523a1.342,1.342,0,0,1,1.122-.57,1.392,1.392,0,0,1,1.44,1.521V79.37h-.544V77.564a.932.932,0,0,0-1-1.022,1.019,1.019,0,0,0-1.008,1.069V79.37h-.538V76.084Z" fill="#3d3d3b"/>
    </g>
    <g id="Groupe_29" data-name="Groupe 29" clip-path="url(#clip-path)">
      <path id="Tracé_25" data-name="Tracé 25" d="M32.144,76.084h.5l.026.523a1.342,1.342,0,0,1,1.122-.57,1.392,1.392,0,0,1,1.44,1.521V79.37h-.544V77.564a.932.932,0,0,0-1-1.022,1.019,1.019,0,0,0-1.008,1.069V79.37h-.538V76.084Z" fill="#3d3d3b"/>
    </g>
    <g id="Groupe_30" data-name="Groupe 30" clip-path="url(#clip-path)">
      <path id="Tracé_26" data-name="Tracé 26" d="M40.989,76.018a1.706,1.706,0,1,1-1.7,1.719,1.637,1.637,0,0,1,1.7-1.719m.006.5a1.143,1.143,0,0,0-1.162,1.222,1.162,1.162,0,1,0,2.324,0,1.15,1.15,0,0,0-1.162-1.222" fill="#3d3d3b"/>
    </g>
    <g id="Groupe_31" data-name="Groupe 31" clip-path="url(#clip-path)">
      <path id="Tracé_27" data-name="Tracé 27" d="M46.933,76.09l.531,1.281.558,1.42.551-1.413L49.1,76.09h.6l-1.38,3.286h-.6L46.336,76.09Z" fill="#3d3d3b"/>
    </g>
    <g id="Groupe_32" data-name="Groupe 32" clip-path="url(#clip-path)">
      <path id="Tracé_28" data-name="Tracé 28" d="M56.25,79.383l-.014-.6a1.387,1.387,0,0,1-1.208.663,1.706,1.706,0,0,1,.007-3.411,1.377,1.377,0,0,1,1.215.65l.006-.6h.531v3.278h-.524Zm-1.195-2.828a1.2,1.2,0,0,0,0,2.4,1.2,1.2,0,0,0,.006-2.4Z" fill="#3d3d3b"/>
    </g>
    <g id="Groupe_33" data-name="Groupe 33" clip-path="url(#clip-path)">
      <path id="Tracé_29" data-name="Tracé 29" d="M62.028,76.1h1.016v.465H62.021v1.732c0,.385.127.631.518.631A1.07,1.07,0,0,0,63,78.8l.159.452a1.608,1.608,0,0,1-.637.159c-.7.013-1.035-.4-1.035-1.122V76.562h-.657V76.1h.657v-.9l.544-.06Z" fill="#3d3d3b"/>
    </g>
    <g id="Groupe_34" data-name="Groupe 34" clip-path="url(#clip-path)">
      <path id="Tracé_30" data-name="Tracé 30" d="M67.7,75.1a.359.359,0,0,1-.717-.007.359.359,0,0,1,.717.007m-.637,4.274h.544V76.077h-.544Z" fill="#3d3d3b"/>
    </g>
    <g id="Groupe_35" data-name="Groupe 35" clip-path="url(#clip-path)">
      <path id="Tracé_31" data-name="Tracé 31" d="M73.412,76.018a1.706,1.706,0,1,1-1.7,1.719,1.637,1.637,0,0,1,1.7-1.719m0,.5a1.143,1.143,0,0,0-1.162,1.222,1.162,1.162,0,1,0,2.324,0,1.149,1.149,0,0,0-1.162-1.222" fill="#3d3d3b"/>
    </g>
    <g id="Groupe_36" data-name="Groupe 36" clip-path="url(#clip-path)">
      <path id="Tracé_32" data-name="Tracé 32" d="M79.223,76.084h.5l.026.523a1.342,1.342,0,0,1,1.122-.57,1.392,1.392,0,0,1,1.44,1.521V79.37h-.544V77.564a.932.932,0,0,0-1-1.022,1.019,1.019,0,0,0-1.008,1.069V79.37h-.538V76.084Z" fill="#3d3d3b"/>
    </g>
    <g id="Groupe_37" data-name="Groupe 37" clip-path="url(#clip-path)">
      <path id="Tracé_33" data-name="Tracé 33" d="M94.536,78.845a1.892,1.892,0,0,1-1.414.584,1.706,1.706,0,1,1-.027-3.412,1.564,1.564,0,0,1,1.64,1.925H91.947a1.111,1.111,0,0,0,1.188.983,1.434,1.434,0,0,0,1.042-.412l.366.332h-.007Zm-.319-1.355a.989.989,0,0,0-1.108-.981,1.119,1.119,0,0,0-1.162.975h2.27v.006Z" fill="#3d3d3b"/>
    </g>
    <g id="Groupe_38" data-name="Groupe 38" clip-path="url(#clip-path)">
      <path id="Tracé_34" data-name="Tracé 34" d="M99.71,76.1h1.016v.465H99.7v1.732c0,.385.127.631.518.631a1.07,1.07,0,0,0,.458-.12l.159.452a1.608,1.608,0,0,1-.637.159c-.7.013-1.035-.4-1.035-1.122V76.562h-.657V76.1h.657v-.9l.544-.06V76.1Z" fill="#3d3d3b"/>
    </g>
    <g id="Groupe_39" data-name="Groupe 39" clip-path="url(#clip-path)">
      <path id="Tracé_35" data-name="Tracé 35" d="M112.992,74.717v4.646h-.512l-.026-.6a1.39,1.39,0,0,1-1.228.664,1.7,1.7,0,0,1-.006-3.4,1.383,1.383,0,0,1,1.227.657V74.723h.538Zm-1.726,1.818a1.188,1.188,0,0,0,0,2.376,1.188,1.188,0,0,0-.007-2.376h.007Z" fill="#3d3d3b"/>
    </g>
    <g id="Groupe_40" data-name="Groupe 40" clip-path="url(#clip-path)">
      <path id="Tracé_36" data-name="Tracé 36" d="M120.436,77.941h-2.774a1.1,1.1,0,0,0,1.174.99,1.433,1.433,0,0,0,1.042-.412l.366.332a1.892,1.892,0,0,1-1.414.584,1.706,1.706,0,1,1-.033-3.412,1.567,1.567,0,0,1,1.639,1.932Zm-2.768-.444h2.257a.991.991,0,0,0-1.109-.981,1.106,1.106,0,0,0-1.148.975Zm.79-1.977v.033h.5l.664-.863v-.013h-.671Z" fill="#3d3d3b"/>
    </g>
    <g id="Groupe_41" data-name="Groupe 41" clip-path="url(#clip-path)">
      <path id="Tracé_37" data-name="Tracé 37" d="M124.681,76.09l.531,1.281.558,1.42.551-1.413.531-1.288h.6l-1.38,3.286h-.6l-1.387-3.286Z" fill="#3d3d3b"/>
    </g>
    <g id="Groupe_42" data-name="Groupe 42" clip-path="url(#clip-path)">
      <path id="Tracé_38" data-name="Tracé 38" d="M134.237,78.845a1.892,1.892,0,0,1-1.414.584,1.706,1.706,0,1,1-.027-3.412,1.564,1.564,0,0,1,1.64,1.925h-2.788a1.111,1.111,0,0,0,1.188.983,1.434,1.434,0,0,0,1.042-.412l.366.332h-.007Zm-.319-1.355a.989.989,0,0,0-1.108-.981,1.119,1.119,0,0,0-1.162.975h2.27Z" fill="#3d3d3b"/>
    </g>
    <g id="Groupe_43" data-name="Groupe 43" transform="translate(138.555 74.723)" clip-path="url(#clip-path-43)">
      <rect id="Rectangle_46" data-name="Rectangle 46" width="0.544" height="4.646" fill="#3d3d3b"/>
    </g>
    <g id="Groupe_44" data-name="Groupe 44" clip-path="url(#clip-path)">
      <path id="Tracé_39" data-name="Tracé 39" d="M144.944,76.018a1.706,1.706,0,1,1-1.7,1.719,1.637,1.637,0,0,1,1.7-1.719m.006.5a1.143,1.143,0,0,0-1.162,1.222,1.162,1.162,0,1,0,2.324,0,1.15,1.15,0,0,0-1.162-1.222" fill="#3d3d3b"/>
    </g>
    <g id="Groupe_45" data-name="Groupe 45" clip-path="url(#clip-path)">
      <path id="Tracé_40" data-name="Tracé 40" d="M150.755,76.1h.518l.026.63a1.45,1.45,0,0,1,1.262-.689,1.7,1.7,0,0,1-.034,3.4,1.4,1.4,0,0,1-1.241-.664v2.137h-.531Zm2.894,1.645a1.1,1.1,0,0,0-1.155-1.175,1.12,1.12,0,0,0-1.148,1.175,1.141,1.141,0,0,0,1.148,1.183,1.109,1.109,0,0,0,1.155-1.183" fill="#3d3d3b"/>
    </g>
    <g id="Groupe_46" data-name="Groupe 46" clip-path="url(#clip-path)">
      <path id="Tracé_41" data-name="Tracé 41" d="M158.306,76.1h.518l.026.63a1.45,1.45,0,0,1,1.262-.689,1.7,1.7,0,0,1-.034,3.4,1.4,1.4,0,0,1-1.241-.664v2.137h-.531Zm2.894,1.645a1.1,1.1,0,0,0-1.155-1.175,1.12,1.12,0,0,0-1.148,1.175,1.141,1.141,0,0,0,1.148,1.183,1.109,1.109,0,0,0,1.155-1.183" fill="#3d3d3b"/>
    </g>
    <g id="Groupe_47" data-name="Groupe 47" clip-path="url(#clip-path)">
      <path id="Tracé_42" data-name="Tracé 42" d="M168.791,78.845a1.891,1.891,0,0,1-1.414.584,1.706,1.706,0,1,1-.027-3.412,1.564,1.564,0,0,1,1.64,1.925H166.2a1.111,1.111,0,0,0,1.188.983,1.437,1.437,0,0,0,1.042-.412l.365.332h-.006Zm-.318-1.355a.99.99,0,0,0-1.108-.981,1.119,1.119,0,0,0-1.162.975h2.271v.006Z" fill="#3d3d3b"/>
    </g>
    <g id="Groupe_48" data-name="Groupe 48" clip-path="url(#clip-path)">
      <path id="Tracé_43" data-name="Tracé 43" d="M173.076,76.1h.5l.034.478a1.051,1.051,0,0,1,.969-.537,1.094,1.094,0,0,1,1.1.717,1.226,1.226,0,0,1,1.155-.717,1.316,1.316,0,0,1,1.38,1.461V79.37h-.544V77.5a.854.854,0,0,0-.85-.949.9.9,0,0,0-.9.962V79.37h-.545V77.512a.889.889,0,1,0-1.772,0V79.37h-.544V76.092Z" fill="#3d3d3b"/>
    </g>
    <g id="Groupe_49" data-name="Groupe 49" clip-path="url(#clip-path)">
      <path id="Tracé_44" data-name="Tracé 44" d="M185.434,78.845a1.892,1.892,0,0,1-1.414.584,1.706,1.706,0,1,1-.027-3.412,1.564,1.564,0,0,1,1.64,1.925h-2.788a1.111,1.111,0,0,0,1.188.983,1.434,1.434,0,0,0,1.042-.412l.366.332h-.007Zm-.32-1.355a.989.989,0,0,0-1.107-.981,1.119,1.119,0,0,0-1.162.975h2.27v.006Z" fill="#3d3d3b"/>
    </g>
    <g id="Groupe_50" data-name="Groupe 50" clip-path="url(#clip-path)">
      <path id="Tracé_45" data-name="Tracé 45" d="M189.713,76.084h.5l.026.523a1.342,1.342,0,0,1,1.122-.57,1.392,1.392,0,0,1,1.44,1.521V79.37h-.545V77.564a.931.931,0,0,0-.995-1.022,1.02,1.02,0,0,0-1.009,1.069V79.37h-.537V76.084Z" fill="#3d3d3b"/>
    </g>
    <g id="Groupe_51" data-name="Groupe 51" clip-path="url(#clip-path)">
      <path id="Tracé_46" data-name="Tracé 46" d="M197.906,76.1h1.017v.465H197.9v1.732c0,.385.127.631.519.631a1.07,1.07,0,0,0,.458-.12l.159.452a1.617,1.617,0,0,1-.638.159c-.7.013-1.035-.4-1.035-1.122V76.562h-.656V76.1h.656v-.9l.544-.06V76.1Z" fill="#3d3d3b"/>
    </g>
    <g id="Groupe_52" data-name="Groupe 52" clip-path="url(#clip-path)">
      <path id="Tracé_47" data-name="Tracé 47" d="M211.188,74.717v4.646h-.512l-.025-.6a1.39,1.39,0,0,1-1.229.664,1.7,1.7,0,0,1-.006-3.4,1.383,1.383,0,0,1,1.227.657V74.723h.538Zm-1.725,1.818a1.188,1.188,0,0,0,0,2.376,1.188,1.188,0,0,0-.007-2.376h.007Z" fill="#3d3d3b"/>
    </g>
    <g id="Groupe_53" data-name="Groupe 53" clip-path="url(#clip-path)">
      <path id="Tracé_48" data-name="Tracé 48" d="M218.44,78.845a1.892,1.892,0,0,1-1.414.584A1.706,1.706,0,1,1,217,76.017a1.564,1.564,0,0,1,1.64,1.925h-2.788a1.111,1.111,0,0,0,1.188.983,1.437,1.437,0,0,0,1.042-.412l.365.332h-.006Zm-.318-1.355a.99.99,0,0,0-1.108-.981,1.119,1.119,0,0,0-1.162.975h2.271v.006Z" fill="#3d3d3b"/>
    </g>
    <g id="Groupe_54" data-name="Groupe 54" clip-path="url(#clip-path)">
      <path id="Tracé_49" data-name="Tracé 49" d="M224.823,76.82a1.261,1.261,0,0,0-.923-.319c-.451-.006-.816.153-.81.479s.4.438.816.484c.6.073,1.394.192,1.38,1-.013.657-.637.982-1.374.982a1.787,1.787,0,0,1-1.466-.617l.312-.378a1.515,1.515,0,0,0,1.168.5c.358,0,.816-.112.83-.511.007-.358-.379-.464-.883-.524-.631-.079-1.308-.245-1.308-.942s.7-.969,1.328-.962a1.743,1.743,0,0,1,1.247.438l-.312.358Z" fill="#3d3d3b"/>
    </g>
    <g id="Groupe_55" data-name="Groupe 55" clip-path="url(#clip-path)">
      <path id="Tracé_50" data-name="Tracé 50" d="M237.309,78.845a1.892,1.892,0,0,1-1.414.584,1.706,1.706,0,1,1-.028-3.412,1.564,1.564,0,0,1,1.64,1.925H234.72a1.111,1.111,0,0,0,1.188.983,1.434,1.434,0,0,0,1.042-.412l.366.332h-.007Zm-.32-1.355a.989.989,0,0,0-1.108-.981,1.119,1.119,0,0,0-1.161.975h2.27v.006Z" fill="#3d3d3b"/>
    </g>
    <g id="Groupe_56" data-name="Groupe 56" clip-path="url(#clip-path)">
      <path id="Tracé_51" data-name="Tracé 51" d="M241.587,76.084h.5l.026.523a1.341,1.341,0,0,1,1.121-.57,1.392,1.392,0,0,1,1.44,1.521V79.37h-.544V77.564a.932.932,0,0,0-1-1.022,1.019,1.019,0,0,0-1.008,1.069V79.37h-.538V76.084Z" fill="#3d3d3b"/>
    </g>
    <g id="Groupe_57" data-name="Groupe 57" clip-path="url(#clip-path)">
      <path id="Tracé_52" data-name="Tracé 52" d="M249.781,76.1H250.8v.465h-1.023v1.732c0,.385.127.631.519.631a1.07,1.07,0,0,0,.458-.12l.159.452a1.613,1.613,0,0,1-.638.159c-.7.013-1.035-.4-1.035-1.122V76.562h-.656V76.1h.656v-.9l.545-.06V76.1Z" fill="#3d3d3b"/>
    </g>
    <g id="Groupe_58" data-name="Groupe 58" clip-path="url(#clip-path)">
      <path id="Tracé_53" data-name="Tracé 53" d="M255.327,76.084l.04.49a1.063,1.063,0,0,1,1.009-.544,1.239,1.239,0,0,1,.763.245l-.246.465a.971.971,0,0,0-1.533.8v1.825h-.544V76.09h.505Z" fill="#3d3d3b"/>
    </g>
    <g id="Groupe_59" data-name="Groupe 59" clip-path="url(#clip-path)">
      <path id="Tracé_54" data-name="Tracé 54" d="M263.807,78.845a1.892,1.892,0,0,1-1.414.584,1.706,1.706,0,1,1-.027-3.412,1.564,1.564,0,0,1,1.64,1.925h-2.788a1.111,1.111,0,0,0,1.188.983,1.437,1.437,0,0,0,1.042-.412l.365.332h-.006Zm-.319-1.355a.99.99,0,0,0-1.108-.981,1.119,1.119,0,0,0-1.162.975h2.271v.006Z" fill="#3d3d3b"/>
    </g>
    <g id="Groupe_60" data-name="Groupe 60" clip-path="url(#clip-path)">
      <path id="Tracé_55" data-name="Tracé 55" d="M268.084,76.1h.519l.026.63a1.449,1.449,0,0,1,1.262-.689,1.7,1.7,0,0,1-.034,3.4,1.4,1.4,0,0,1-1.241-.664v2.137h-.531V76.1Zm2.895,1.645a1.1,1.1,0,0,0-1.155-1.175,1.119,1.119,0,0,0-1.147,1.175,1.141,1.141,0,0,0,1.147,1.183,1.11,1.11,0,0,0,1.155-1.183" fill="#3d3d3b"/>
    </g>
    <g id="Groupe_61" data-name="Groupe 61" clip-path="url(#clip-path)">
      <path id="Tracé_56" data-name="Tracé 56" d="M276.147,76.084l.039.49a1.065,1.065,0,0,1,1.01-.544,1.239,1.239,0,0,1,.763.245l-.246.465a.971.971,0,0,0-1.533.8v1.825h-.544V76.09h.505Z" fill="#3d3d3b"/>
    </g>
    <g id="Groupe_62" data-name="Groupe 62" clip-path="url(#clip-path)">
      <path id="Tracé_57" data-name="Tracé 57" d="M282.438,75.1a.36.36,0,0,1-.719-.007.36.36,0,0,1,.719.007m-.639,4.274h.544V76.077H281.8Z" fill="#3d3d3b"/>
    </g>
    <g id="Groupe_63" data-name="Groupe 63" clip-path="url(#clip-path)">
      <path id="Tracé_58" data-name="Tracé 58" d="M288.764,76.82a1.26,1.26,0,0,0-.923-.319c-.451-.006-.816.153-.81.479s.4.438.816.484c.6.073,1.395.192,1.381,1-.014.657-.638.982-1.374.982a1.787,1.787,0,0,1-1.467-.617l.312-.378a1.517,1.517,0,0,0,1.168.5c.359,0,.817-.112.83-.511.007-.358-.378-.464-.883-.524-.631-.079-1.308-.245-1.308-.942s.7-.969,1.328-.962a1.74,1.74,0,0,1,1.247.438l-.312.358Z" fill="#3d3d3b"/>
    </g>
    <g id="Groupe_64" data-name="Groupe 64" clip-path="url(#clip-path)">
      <path id="Tracé_59" data-name="Tracé 59" d="M296.228,78.845a1.891,1.891,0,0,1-1.414.584,1.706,1.706,0,1,1-.027-3.412,1.565,1.565,0,0,1,1.64,1.925h-2.788a1.111,1.111,0,0,0,1.188.983,1.436,1.436,0,0,0,1.042-.412l.365.332h-.006Zm-.319-1.355a.99.99,0,0,0-1.108-.981,1.119,1.119,0,0,0-1.162.975h2.271v.006Z" fill="#3d3d3b"/>
    </g>
    <g id="Groupe_65" data-name="Groupe 65" clip-path="url(#clip-path)">
      <path id="Tracé_60" data-name="Tracé 60" d="M302.61,76.82a1.259,1.259,0,0,0-.922-.319c-.452-.006-.816.153-.811.479s.4.438.816.484c.6.073,1.4.192,1.381,1-.013.657-.637.982-1.374.982a1.789,1.789,0,0,1-1.467-.617l.313-.378a1.512,1.512,0,0,0,1.167.5c.358,0,.816-.112.829-.511.007-.358-.378-.464-.883-.524-.63-.079-1.308-.245-1.308-.942s.7-.969,1.328-.962a1.743,1.743,0,0,1,1.248.438l-.312.358Z" fill="#3d3d3b"/>
    </g>
  </g>
  <rect id="Rectangle_70" data-name="Rectangle 70" width="0.901" height="49.66" transform="translate(237.709 10.001)" fill="#303731"/>
  <g id="Groupe_74" data-name="Groupe 74">
    <g id="Groupe_67" data-name="Groupe 67" clip-path="url(#clip-path)">
      <path id="Tracé_61" data-name="Tracé 61" d="M261.077,33.3a40.786,40.786,0,0,1-4.943-6.362c-2.39-3.919-3.64-9.582-.01-13.15,3.883-3.818,11.311-1.492,13.086,3.294.683,1.84,3.655,1.05,2.965-.811a11.523,11.523,0,0,0-11.714-7.338c-5.693.308-9.4,4.749-9.688,10.216-.3,5.657,2.535,10.273,6.242,14.514a27.228,27.228,0,0,1,4.062-.363" fill="#303731"/>
    </g>
    <g id="Groupe_68" data-name="Groupe 68" clip-path="url(#clip-path)">
      <path id="Tracé_62" data-name="Tracé 62" d="M265.613,37.995a40.785,40.785,0,0,0-4.814-.324c3.54,3.567,7.194,7.011,9.441,10.779A1.537,1.537,0,0,0,272.9,46.9a48.768,48.768,0,0,0-7.282-8.909" fill="#303731"/>
    </g>
    <g id="Groupe_69" data-name="Groupe 69" clip-path="url(#clip-path)">
      <path id="Tracé_63" data-name="Tracé 63" d="M284.851,39.994q-.222.237-.442.47c-4.582,4.845-9.547,9.272-13.358,14.79-1.129,1.635,1.532,3.175,2.65,1.556,4.487-6.5,10.662-11.525,15.792-17.478a33.977,33.977,0,0,1-4.642.662" fill="#303731"/>
    </g>
    <g id="Groupe_70" data-name="Groupe 70" clip-path="url(#clip-path)">
      <path id="Tracé_64" data-name="Tracé 64" d="M277.652,34.349c1.962-.155,1.982-3.229.006-3.073-3.953.312-7.057-3.18-5.382-7.09,1.217-2.842,4.848-4.843,7.492-6.1a19.2,19.2,0,0,1,9.183-1.678c4.375.234,6.038,3.573,5.4,7.569a22.748,22.748,0,0,1-3.641,8.8,35.084,35.084,0,0,0,4.658-2.141c2.644-5.547,3.908-12.39-1.606-15.96-3.01-1.948-7.289-1.511-10.607-.886a23.3,23.3,0,0,0-10.611,5.35c-3.051,2.6-4.554,6.111-3.31,10.025,1.119,3.515,4.916,5.465,8.419,5.188" fill="#303731"/>
    </g>
    <g id="Groupe_71" data-name="Groupe 71" clip-path="url(#clip-path)">
      <path id="Tracé_65" data-name="Tracé 65" d="M300.222,39.75a28.89,28.89,0,0,0-8.234,1.087,1.85,1.85,0,0,0-1.254,2.465q-1.9.881-3.752,1.868a1.811,1.811,0,0,0-.271,3.038l-1.495.548a2.032,2.032,0,0,0-1.191,2.727L280,52.026c-1.6.216-1.942,2.9-.468,3.529l.682.291a2.022,2.022,0,0,0,2.073-.265l16.483-2.225c2.338-.316,1.459-3.568-.506-3.795q-1.574-.183-3.147-.328l3.091-1.13a1.931,1.931,0,0,0-.013-3.7c.837-.3,1.677-.592,2.53-.861a1.94,1.94,0,0,0-.507-3.8" fill="#303731"/>
    </g>
    <g id="Groupe_72" data-name="Groupe 72" clip-path="url(#clip-path)">
      <path id="Tracé_66" data-name="Tracé 66" d="M268.618,52.2a6.539,6.539,0,0,0-1.768-.784c1.422-1.075.446-3.266-1.245-3.42l-.4-.037,1.13-.912c1.25-1.012.277-3.509-1.36-3.3l-6.162.785c-2.378.3-2.464,3.983-.173,3.867a1.84,1.84,0,0,0,.644,2.579c-.854.412-1.7.831-2.568,1.224-1.384.628-1.151,2.239-.229,3.077l-3.727,1.148c-2.372.729-1.367,4.462,1.021,3.727l14.367-4.424a1.951,1.951,0,0,0,.466-3.53" fill="#303731"/>
    </g>
    <g id="Groupe_73" data-name="Groupe 73" clip-path="url(#clip-path)">
      <path id="Tracé_67" data-name="Tracé 67" d="M278.9,39.249c1.064.1,2.156.153,3.263.153,7.471,0,15.594-2.389,20.685-8.24,1.146-1.316.115-3.465-1.23-3.465a1.453,1.453,0,0,0-.867.307c-7.355,5.4-14.194,7.534-21.931,7.534a53.961,53.961,0,0,1-8.336-.708,57.455,57.455,0,0,0-8.823-.841c-5.19,0-10.158,1.208-14.614,5.259a.929.929,0,0,0,.592,1.55.648.648,0,0,0,.362-.114,22.024,22.024,0,0,1,12.76-3.711c5.924,0,11.942,1.687,18.139,2.276" fill="#303731"/>
    </g>
  </g>
</svg>
